<svg width="11" height="19" viewBox="0 0 11 19" fill="none" xmlns="http://www.w3.org/2000/svg">
<path id="Vector" d="M8.77501 18.6L0.350012 10.2C0.250012 10.1 0.179346 9.99169 0.138012 9.87502C0.0960122 9.75836 0.0750122 9.63336 0.0750122 9.50002C0.0750122 9.36669 0.0960122 9.24169 0.138012 9.12502C0.179346 9.00836 0.250012 8.90002 0.350012 8.80002L8.77501 0.375024C9.00835 0.141691 9.30001 0.0250244 9.65001 0.0250244C10 0.0250244 10.3 0.150024 10.55 0.400024C10.8 0.650024 10.925 0.941691 10.925 1.27502C10.925 1.60836 10.8 1.90002 10.55 2.15002L3.20001 9.50002L10.55 16.85C10.7833 17.0834 10.9 17.3707 10.9 17.712C10.9 18.054 10.775 18.35 10.525 18.6C10.275 18.85 9.98335 18.975 9.65001 18.975C9.31668 18.975 9.02501 18.85 8.77501 18.6Z" fill="#101729"/>
</svg>
