<svg width="19" height="19" viewBox="0 0 19 19" fill="none" xmlns="http://www.w3.org/2000/svg">
<g id="fluent:chat-12-filled">
<path id="Vector" d="M1.58337 9.5C1.58377 7.76435 2.15455 6.07693 3.20786 4.69743C4.26118 3.31793 5.73865 2.32282 7.41289 1.86523C9.08714 1.40764 10.8654 1.51295 12.4739 2.16494C14.0824 2.81693 15.4321 3.97947 16.3153 5.47364C17.1984 6.96781 17.566 8.71081 17.3616 10.4344C17.1571 12.1579 16.3919 13.7666 15.1837 15.0126C13.9755 16.2587 12.3913 17.0732 10.6749 17.3308C8.95845 17.5884 7.20494 17.2748 5.68421 16.4382L2.60621 17.3755C2.46892 17.4173 2.32284 17.421 2.18361 17.3862C2.04437 17.3515 1.91721 17.2795 1.81573 17.178C1.71424 17.0765 1.64226 16.9493 1.60746 16.8101C1.57267 16.6709 1.57639 16.5248 1.61821 16.3875L2.55554 13.3048C1.91709 12.1383 1.58274 10.8298 1.58337 9.5ZM6.33337 8.70833C6.33337 8.9183 6.41678 9.11966 6.56525 9.26813C6.71372 9.41659 6.91508 9.5 7.12504 9.5H11.875C12.085 9.5 12.2864 9.41659 12.4348 9.26813C12.5833 9.11966 12.6667 8.9183 12.6667 8.70833C12.6667 8.49837 12.5833 8.29701 12.4348 8.14854C12.2864 8.00008 12.085 7.91667 11.875 7.91667H7.12504C6.91508 7.91667 6.71372 8.00008 6.56525 8.14854C6.41678 8.29701 6.33337 8.49837 6.33337 8.70833ZM7.12504 11.0833C6.91508 11.0833 6.71372 11.1667 6.56525 11.3152C6.41678 11.4637 6.33337 11.665 6.33337 11.875C6.33337 12.085 6.41678 12.2863 6.56525 12.4348C6.71372 12.5833 6.91508 12.6667 7.12504 12.6667H10.2917C10.5017 12.6667 10.703 12.5833 10.8515 12.4348C11 12.2863 11.0834 12.085 11.0834 11.875C11.0834 11.665 11 11.4637 10.8515 11.3152C10.703 11.1667 10.5017 11.0833 10.2917 11.0833H7.12504Z" fill="#101729"/>
</g>
</svg>
