<svg width="20" height="19" viewBox="0 0 20 19" fill="none" xmlns="http://www.w3.org/2000/svg">
<g id="fluent:chat-video-20-filled">
<path id="Vector" d="M17.6 9.49999C17.6 7.48435 16.7993 5.55126 15.374 4.12598C13.9488 2.70071 12.0157 1.89999 10 1.89999C7.98438 1.89999 6.05129 2.70071 4.62601 4.12598C3.20074 5.55126 2.40002 7.48435 2.40002 9.49999L2.40667 9.82869L2.43137 10.1916C2.51837 11.1473 2.7856 12.078 3.21892 12.9342L3.27877 13.0482L2.41427 16.51L2.40097 16.5889V16.6668C2.40701 16.7352 2.42782 16.8016 2.46198 16.8612C2.49614 16.9208 2.54282 16.9723 2.59882 17.0122C2.65482 17.052 2.71879 17.0792 2.78632 17.0919C2.85385 17.1046 2.92333 17.1025 2.98997 17.0857L6.45272 16.2212L6.56672 16.282C7.72552 16.8688 9.01536 17.1488 10.3131 17.0953C11.6109 17.0418 12.8733 16.6565 13.9799 15.9764C15.0865 15.2962 16.0002 14.3437 16.634 13.21C17.2677 12.0762 17.6003 10.7989 17.6 9.49999ZM6.20002 7.59999C6.20002 7.34804 6.30011 7.1064 6.47827 6.92824C6.65643 6.75008 6.89807 6.64999 7.15002 6.64999H10C10.252 6.64999 10.4936 6.75008 10.6718 6.92824C10.8499 7.1064 10.95 7.34804 10.95 7.59999V11.4C10.95 11.6519 10.8499 11.8936 10.6718 12.0717C10.4936 12.2499 10.252 12.35 10 12.35H7.15002C6.89807 12.35 6.65643 12.2499 6.47827 12.0717C6.30011 11.8936 6.20002 11.6519 6.20002 11.4V7.59999ZM12.9887 7.46129C13.0551 7.39475 13.1397 7.34939 13.2319 7.33097C13.3241 7.31254 13.4196 7.32186 13.5065 7.35777C13.5933 7.39367 13.6676 7.45454 13.7198 7.53266C13.7721 7.61079 13.8 7.70265 13.8 7.79664V11.2033C13.8 11.2973 13.7721 11.3892 13.7198 11.4673C13.6676 11.5455 13.5933 11.6063 13.5065 11.6422C13.4196 11.6781 13.3241 11.6875 13.2319 11.669C13.1397 11.6506 13.0551 11.6052 12.9887 11.5387L11.9 10.45V8.54999L12.9887 7.46129Z" fill="#F1F4F9"/>
</g>
</svg>
