<svg width="27" height="27" viewBox="0 0 27 27" fill="none" xmlns="http://www.w3.org/2000/svg">
<g id="raphael:connect">
<path id="Vector" d="M21.1443 11.5763C20.3478 7.21153 16.5374 3.90234 11.9449 3.90234V7.27734C13.5317 7.27958 15.0529 7.91091 16.1749 9.03294C17.2969 10.155 17.9282 11.6761 17.9305 13.2629C17.9278 14.8493 17.2964 16.3698 16.1746 17.4915C15.0528 18.6131 13.5321 19.2443 11.9458 19.2468V22.6235C16.5374 22.6201 20.3495 19.3109 21.1452 14.9487H25.1024V11.5737H21.1452L21.1443 11.5763ZM17.1914 13.2638C17.1927 12.0202 16.7521 10.8166 15.9482 9.86782C15.1443 8.91902 14.0294 8.28674 12.8025 8.08379C11.5756 7.88085 10.3165 8.12045 9.24995 8.75984C8.18336 9.39924 7.37865 10.3968 6.97944 11.5746H1.21326V14.9496H6.97944C7.37816 16.1278 8.18264 17.126 9.24927 17.7659C10.3159 18.4058 11.5753 18.6458 12.8025 18.443C14.0297 18.2402 15.1449 17.6079 15.949 16.6588C16.7531 15.7098 17.1937 14.5059 17.1922 13.2621L17.1914 13.2638Z" fill="black"/>
</g>
</svg>
