<svg width="22" height="22" viewBox="0 0 22 22" fill="none" xmlns="http://www.w3.org/2000/svg">
<path id="Vector" d="M9.91105 12.0877C9.71994 11.897 9.49217 11.7469 9.24149 11.6465L1.31149 8.4665C1.2168 8.42851 1.13601 8.36246 1.07994 8.27722C1.02388 8.19199 0.995232 8.09164 0.997845 7.98966C1.00046 7.88767 1.0342 7.78892 1.09456 7.70667C1.15491 7.62442 1.23898 7.56259 1.33549 7.5295L20.3355 1.0295C20.4241 0.997494 20.52 0.991386 20.6119 1.01189C20.7039 1.03239 20.7881 1.07866 20.8547 1.14528C20.9213 1.21189 20.9676 1.2961 20.9881 1.38805C21.0086 1.48 21.0025 1.57589 20.9705 1.6645L14.4705 20.6645C14.4374 20.761 14.3756 20.8451 14.2933 20.9054C14.2111 20.9658 14.1123 20.9995 14.0103 21.0021C13.9083 21.0048 13.808 20.9761 13.7228 20.92C13.6375 20.864 13.5715 20.7832 13.5335 20.6885L10.3535 12.7565C10.2527 12.506 10.1022 12.2785 9.91105 12.0877ZM9.91105 12.0877L20.8515 1.1495" stroke="#F1F4F9" stroke-width="2" stroke-linecap="round" stroke-linejoin="round"/>
</svg>
