<svg width="80" height="73" viewBox="0 0 80 73" fill="none" xmlns="http://www.w3.org/2000/svg">
<path id="Vector" d="M68 0.5C61.384 0.5 56 5.884 56 12.5C56 14.347 56.4542 16.076 57.2031 17.6406L42.3438 32.5H23.2656C21.6086 27.855 17.2064 24.5 12 24.5C5.384 24.5 0 29.884 0 36.5C0 43.116 5.384 48.5 12 48.5C17.2064 48.5 21.6086 45.145 23.2656 40.5H42.3438L57.2031 55.3594C56.4542 56.924 56 58.653 56 60.5C56 67.116 61.384 72.5 68 72.5C74.616 72.5 80 67.116 80 60.5C80 53.884 74.616 48.5 68 48.5C66.153 48.5 64.424 48.9542 62.8594 49.7031L49.6562 36.5L62.8594 23.2969C64.424 24.0458 66.153 24.5 68 24.5C74.616 24.5 80 19.116 80 12.5C80 5.884 74.616 0.5 68 0.5Z" fill="#AA886D"/>
</svg>
