<svg width="80" height="77" viewBox="0 0 80 77" fill="none" xmlns="http://www.w3.org/2000/svg">
<path id="Vector" d="M20.08 44.5C11.24 44.5 4.08 51.66 4.08 60.5C4.08 69.34 11.24 76.5 20.08 76.5C28.92 76.5 36.08 69.34 36.08 60.5C36.08 51.66 28.92 44.5 20.08 44.5ZM44 44.5V76.5H76V44.5H44ZM20 0.5L0 36.5H40L20 0.5ZM69 2.5C64.76 2.5 61.76 4.74 60 7.18C58.24 4.74 55.24 2.5 51 2.5C44.76 2.5 40 7.62 40 13.5C40 21.5 49.68 27.18 60 36.5C70.32 27.18 80 21.5 80 13.5C80 7.62 75.24 2.5 69 2.5Z" fill="#AA886D"/>
</svg>
